<?xml version="1.0" encoding="UTF-8"?>
<svg id="Layer_1" data-name="Layer 1" xmlns="http://www.w3.org/2000/svg" viewBox="0 0 44.39 30.9">
  <defs>
    <style>
      .cls-1 {
        letter-spacing: -.14em;
      }

      .cls-2 {
        fill: #0d3a58;
      }

      .cls-2, .cls-3 {
        stroke-width: 0px;
      }

      .cls-4 {
        fill: #ffde17;
        font-family: FelixTitlingMT, 'Felix Titling';
        font-size: 3.69px;
      }

      .cls-3 {
        fill: #356d35;
      }
    </style>
  </defs>
  <g>
    <path class="cls-3" d="m35.17,21.61c-1.22.15-2.61,0-4.16-.43-3.15-.89-5.61-2.84-7.4-5.86-.42-.68-.78-1.35-1.11-1.99-1.58-3.11-2.14-5.61-1.67-7.5.68-2.78,3.55-4.64,8.61-5.58,3.02-.56,6.01-.21,9,1.05,2.6,1.1,4.37,2.58,5.31,4.43.16.31.3.64.42.97.65,1.9-.1,3.67-2.25,5.3-1.43,1.1-3.03,1.81-4.8,2.14-.78.15-1.6.21-2.45.2-2.32-.02-4.05-.59-5.21-1.71-.36-.35-.63-.7-.81-1.05-.11-.21-.18-.42-.21-.62.85.38,1.86.65,3.05.83,1.29.19,2.47.18,3.55-.02.91-.17,1.74-.47,2.51-.92,1.29-.74,1.99-1.62,2.1-2.63.07-.56-.04-1.12-.33-1.69-.17-.33-.4-.67-.69-1-.72-.85-1.68-1.56-2.88-2.14-1.22-.59-2.4-.9-3.53-.94-.82-.02-1.6.03-2.34.17-.37.07-.73.16-1.08.26-1.17.37-2.07.95-2.69,1.72-1.38,1.7-1.29,4.06.25,7.09.19.38.41.77.65,1.18,1.79,2.99,4.51,5.89,8.17,8.72Z"/>
    <path class="cls-2" d="m9.2,2.7c1.22-.15,2.61,0,4.16.43,3.15.89,5.62,2.84,7.41,5.85.42.68.79,1.35,1.11,1.98,1.59,3.11,2.15,5.61,1.68,7.5-.67,2.78-3.54,4.64-8.6,5.58-3.01.56-6.01.21-9-1.05-2.6-1.1-4.37-2.58-5.32-4.43-.16-.31-.3-.64-.42-.97-.65-1.9.1-3.67,2.25-5.3,1.43-1.1,3.02-1.82,4.79-2.15.78-.15,1.6-.22,2.45-.21,2.32.02,4.06.59,5.22,1.71.36.35.63.7.81,1.05.11.21.18.42.21.62-.85-.37-1.86-.65-3.05-.83-1.29-.19-2.47-.18-3.55.02-.91.17-1.74.48-2.51.92-1.29.74-1.99,1.62-2.09,2.63-.07.56.04,1.12.33,1.69.17.33.4.67.69,1,.72.85,1.68,1.56,2.88,2.14,1.23.59,2.4.9,3.54.94.82.02,1.6-.03,2.34-.17.37-.07.73-.16,1.08-.26,1.17-.38,2.07-.95,2.68-1.72,1.37-1.7,1.29-4.06-.26-7.09-.19-.38-.41-.77-.65-1.18-1.79-2.99-4.52-5.89-8.19-8.72Z"/>
    <ellipse class="cls-3" cx="12.32" cy="16.94" rx="3.86" ry="2.34"/>
    <ellipse class="cls-2" cx="32.53" cy="7.35" rx="3.41" ry="2.06"/>
  </g>
  <text class="cls-4" transform="translate(.4 30.01) scale(1.71 1)"><tspan x="0" y="0">ant</tspan><tspan class="cls-1" x="7.73" y="0">r</tspan><tspan x="10.14" y="0">opusma</tspan></text>
</svg>