<?xml version="1.0" encoding="UTF-8"?>
<svg id="Layer_1" data-name="Layer 1" xmlns="http://www.w3.org/2000/svg" viewBox="0 0 8778.4 2978.5">
  <defs>
    <style>
      .cls-1 {
        font-family: FelixTitlingMT, 'Felix Titling';
        font-size: 1220.8px;
      }

      .cls-1, .cls-2, .cls-3 {
        isolation: isolate;
      }

      .cls-1, .cls-4 {
        fill: #006838;
      }

      .cls-5 {
        letter-spacing: 0em;
      }

      .cls-6 {
        fill: #00a651;
      }

      .cls-6, .cls-7, .cls-4 {
        stroke-width: 0px;
      }

      .cls-7 {
        fill: #fff;
      }

      .cls-8 {
        fill: none;
        stroke: #39b54a;
        stroke-width: 5px;
      }

      .cls-3 {
        font-family: Georgia, Georgia;
        font-size: 400.4px;
      }

      .cls-9 {
        letter-spacing: -.1em;
      }
    </style>
  </defs>
  <g>
    <g>
      <g>
        <path class="cls-4" d="m1963,733.3v-356.5h312.9V47.9h361v12.2c0,99.8-.1,199.5.2,299.3,0,8.9-2.8,14.4-9.3,19.6-145.5,116.7-290.8,233.6-436.3,350.4-3.4,2.7-8.1,5.2-12.2,5.2-71.1.2-142.1,0-213.2,0-.8,0-1.5-.6-3.2-1.3Z"/>
        <path class="cls-6" d="m2947.6,734.5h-290.7v355.2h-372.4v-354.8h-60.2c-.2-1-.4-1.9-.6-2.9,28.1-22.6,56.1-45.2,84.2-67.8,106.5-85.7,213.1-171.2,319.4-257.2,7.8-6.3,12.6-6.1,20.2.2,97.1,78.4,194.5,156.4,291.5,234.9,4.4,3.6,7.9,11.2,8.1,17.1.9,24.5.4,49,.4,75.2Zm-333.8-63.4c39.7,30.7,81.2,16.7,101.8-8,23-27.6,24.1-69,1.8-97.9-25.6-33.2-68.5-38-104.1-10.7-40.4-31.3-85.3-17.3-105.7,7.1-24.5,29.4-25.2,70.3-2.3,100,20.7,26.9,67.6,40.7,108.5,9.5Z"/>
        <path class="cls-4" d="m2949,621.6c-102.7-82.6-202.1-162.5-303.4-244h303.4v244Z"/>
        <path class="cls-7" d="m2613.8,671.1c-40.9,31.1-87.8,17.3-108.5-9.5-22.9-29.7-22.2-70.6,2.3-100,20.4-24.5,65.2-38.4,105.7-7.1,35.6-27.3,78.4-22.5,104.1,10.7,22.3,28.9,21.2,70.4-1.8,97.9-20.6,24.7-62,38.7-101.8,8Zm4.9-103.3c18.8,30.6,17.7,60.8.3,90.3,24.9,25.1,61.7,24.7,85.3,0,23.6-24.8,23.8-64.9.4-90.2-23.3-25.2-60.7-25.5-86,0Zm-15.6-.2c-21.9-23.9-57.8-24-80.4-.2-24.1,25.4-23.5,67.4,1.2,91.9,23.6,23.3,58.8,22.6,78.8-1.6-17.7-35.2-17.7-55.3.3-90.1Zm7.9,80.1c14.7-23.7,14.2-51.9-.7-69.1-13.8,22.7-13.7,47,.7,69.1Z"/>
        <path class="cls-4" d="m2618.7,567.8c25.3-25.5,62.7-25.1,86,0,23.4,25.3,23.2,65.4-.4,90.2-23.6,24.7-60.3,25.2-85.3,0,17.3-29.5,18.4-59.7-.3-90.3Z"/>
        <path class="cls-4" d="m2603.1,567.6c-18,34.7-18.1,54.9-.3,90.1-20.1,24.2-55.2,25-78.8,1.6-24.8-24.5-25.3-66.5-1.2-91.9,22.6-23.8,58.4-23.7,80.4.2Z"/>
        <path class="cls-4" d="m2611.1,647.8c-14.4-22.1-14.5-46.4-.7-69.1,14.9,17.2,15.4,45.4.7,69.1Z"/>
      </g>
      <text class="cls-1" transform="translate(0 1049.3) scale(1.1 1)"><tspan x="0" y="0">an</tspan></text>
      <text class="cls-1" transform="translate(3045.9 1049.3) scale(1 1)"><tspan class="cls-9" x="0" y="0">R</tspan><tspan class="cls-5" x="798.2" y="0">OPUSMA</tspan></text>
    </g>
    <g>
      <g>
        <path class="cls-8" d="m1963,733.3v-356.5h312.9V47.9h361v12.2c0,99.8-.1,199.5.2,299.3,0,8.9-2.8,14.4-9.3,19.6-145.5,116.7-290.8,233.6-436.3,350.4-3.4,2.7-8.1,5.2-12.2,5.2-71.1.2-142.1,0-213.2,0-.8,0-1.5-.6-3.2-1.3Z"/>
        <path class="cls-8" d="m2947.6,734.5h-290.7v355.2h-372.4v-354.8h-60.2c-.2-1-.4-1.9-.6-2.9,28.1-22.6,56.1-45.2,84.2-67.8,106.5-85.7,213.1-171.2,319.4-257.2,7.8-6.3,12.6-6.1,20.2.2,97.1,78.4,194.5,156.4,291.5,234.9,4.4,3.6,7.9,11.2,8.1,17.1.9,24.5.4,49,.4,75.2Zm-333.8-63.4c39.7,30.7,81.2,16.7,101.8-8,23-27.6,24.1-69,1.8-97.9-25.6-33.2-68.5-38-104.1-10.7-40.4-31.3-85.3-17.3-105.7,7.1-24.5,29.4-25.2,70.3-2.3,100,20.7,26.9,67.6,40.7,108.5,9.5Z"/>
        <path class="cls-8" d="m2949,621.6c-102.7-82.6-202.1-162.5-303.4-244h303.4v244Z"/>
        <path class="cls-8" d="m2613.8,671.1c-40.9,31.1-87.8,17.3-108.5-9.5-22.9-29.7-22.2-70.6,2.3-100,20.4-24.5,65.2-38.4,105.7-7.1,35.6-27.3,78.4-22.5,104.1,10.7,22.3,28.9,21.2,70.4-1.8,97.9-20.6,24.7-62,38.7-101.8,8Zm4.9-103.3c18.8,30.6,17.7,60.8.3,90.3,24.9,25.1,61.7,24.7,85.3,0,23.6-24.8,23.8-64.9.4-90.2-23.3-25.2-60.7-25.5-86,0Zm-15.6-.2c-21.9-23.9-57.8-24-80.4-.2-24.1,25.4-23.5,67.4,1.2,91.9,23.6,23.3,58.8,22.6,78.8-1.6-17.7-35.2-17.7-55.3.3-90.1Zm7.9,80.1c14.7-23.7,14.2-51.9-.7-69.1-13.8,22.7-13.7,47,.7,69.1Z"/>
        <path class="cls-8" d="m2618.7,567.8c25.3-25.5,62.7-25.1,86,0,23.4,25.3,23.2,65.4-.4,90.2-23.6,24.7-60.3,25.2-85.3,0,17.3-29.5,18.4-59.7-.3-90.3Z"/>
        <path class="cls-8" d="m2603.1,567.6c-18,34.7-18.1,54.9-.3,90.1-20.1,24.2-55.2,25-78.8,1.6-24.8-24.5-25.3-66.5-1.2-91.9,22.6-23.8,58.4-23.7,80.4.2Z"/>
        <path class="cls-8" d="m2611.1,647.8c-14.4-22.1-14.5-46.4-.7-69.1,14.9,17.2,15.4,45.4.7,69.1Z"/>
      </g>
      <g>
        <path class="cls-8" d="m537.2,645.3h-271.4l-139.1,331.2c-9.6,23.9-14.4,38.6-14.4,44.1,0,13.1,10.2,19.7,30.7,19.7v9H6v-9c18.3,0,33.8-4.3,46.3-12.8s26.2-30.7,41.3-66.5L427.9,158.3h16l329.9,775.2c0,4,8.4,22.8,25.2,56.4,16.8,33.6,42.5,50.4,77,50.4v9h-215v-9c19.6,0,29.4-7.3,29.4-22.1s-4.8-25.8-14.4-47.7c-1.7-1.6-3.1-4.2-4.4-7.8-.8-4-1.5-6-1.9-6l-132.5-311.5Zm-262.5-24h251.2l-126.4-299.6-124.8,299.6Z"/>
        <path class="cls-8" d="m1691.8,171.3h177v9c-26.8.8-45.3,6.3-55.6,16.4-10.3,10.1-15.4,31.5-15.4,64.1v799.5l-738-746.1v649.3c0,20.7,1.6,35.9,4.9,45.9,3.3,9.9,8,16.7,14.1,20.2,6.1,3.6,21.5,7.2,46,10.7v9h-176v-9c31.8,0,51.6-5.4,59.4-16.1s11.6-36.3,11.6-76.8V353.6c0-52-7.6-94.5-22.8-127.5-15.2-32.9-50.3-48.2-105.2-45.9v-9h173l694,701.6V252.5c0-33.4-6.3-53.8-18.8-61.1-12.5-7.4-28.6-11.1-48.2-11.1v-9Z"/>
      </g>
      <g>
        <path class="cls-8" d="m3092.9,180.3v-9h236.5c60,0,103.3,1.4,130.1,4.2s54.2,12,82.3,27.7,49.3,36.9,63.6,63.7c14.3,26.8,21.5,59.7,21.5,98.6s-12.8,86.9-38.2,127.2c-25.5,40.3-61.4,74.4-107.9,102.1l58.9,95.4c12.8,23.8,46.9,76.1,102.2,156.8,55.3,80.7,98.1,129.9,128.3,147.7,30.2,17.8,59.5,26.7,87.9,26.7s60.1-11.3,96.3-34l3.4,11.9c-45.3,38.8-104.2,58.1-176.7,58.1s-89.8-15-124.6-45.1c-34.7-30.1-95.2-112.6-181.5-247.7-.8-.8-1.1-1.6-1.1-2.4l-84-135.8-74.5,2.4h-67.6v336c0,27,3.4,46.4,10.1,58.1s23,17.6,48.9,17.6v9h-214v-9c26.3-1.2,42.8-7.1,49.2-17.9s9.8-32.6,9.8-65.5V259.5c0-22.6-2.8-41.4-8.4-56.3s-22.4-22.5-50.6-22.9Zm155,15v411h87.5c69,0,120.1-17,153.5-51.1s50-78.9,50-134.4-16.4-105-49.2-153.2c-32.8-48.2-90.5-72.3-173.1-72.3h-68.8Z"/>
        <path class="cls-8" d="m4472.6,158.3c117.2,0,213,37.5,287.5,112.4s111.7,168.4,111.7,280.5-43.1,265.7-129.3,364.3-200.5,147.8-343.1,147.8-210.4-39.7-284.1-119.2c-73.7-79.5-110.6-174.9-110.6-286.2s17.8-152.2,53.3-231.3,89-143.6,160.5-193.5c71.4-49.9,156.1-74.8,254-74.8Zm-3.1,858c57.4,0,114.1-16.2,170-48.5,55.9-32.3,99.9-76.9,132.1-133.7s48.2-115.1,48.2-175.1c0-84.9-21.6-162.2-64.9-231.6s-99.4-123.8-168.3-163.2c-69-39.3-132.7-59-191.3-59s-157.9,32.8-225.3,98.2c-67.4,65.5-101.2,146.9-101.2,244.1s41.2,233.4,123.6,327.5c82.4,94.1,174.8,141.1,277.2,141.1Z"/>
        <path class="cls-8" d="m4957.1,180.3v-9h238.2c84.7,0,146.2,9.9,184.6,29.9s66.3,44.7,83.9,74.3,26.4,68.8,26.4,117.3c0,74.4-24.4,130.4-73.2,167.8-48.8,37.4-115.1,55.3-198.8,53.7v-9c53,0,96.1-17.1,129.3-51.2,33.1-34.2,49.7-79,49.7-134.7s-8.1-81.7-24.1-115.3c-16.1-33.6-38.7-59.1-67.8-76.6-29.2-17.5-73.6-26.2-133.4-26.2h-59.6v750.9c0,42.5,4.5,67.8,13.4,75.9,8.9,8.1,25.8,12.2,50.6,12.2v9h-219v-9c39.3,0,59-18.9,59-56.6V257.1c0-31-3.8-51.5-11.3-61.6-7.6-10.1-23.5-15.2-47.7-15.2Z"/>
        <path class="cls-8" d="m6350.6,1049.3h-158v-135c-80.5,94-176.6,141-288.1,141s-148.5-24.4-197.1-73.3-72.9-116.4-72.9-202.7V253.6c0-31.8-3.6-52-10.7-60.5-7.2-8.5-23.9-12.8-50.3-12.8v-9h221v9c-23.4,0-39.9,3.9-49.6,11.6s-14.4,26.1-14.4,55v481.2c0,100.7,22.5,172.6,67.5,215.6s96.3,64.5,153.8,64.5c90.4,0,170.7-42,240.7-126V287.7c0-52.1-4.4-83-13.1-92.8-8.7-9.7-22.4-14.6-40.9-14.6h-8v-9h220v9c-27.3,1.6-44.5,6.4-51.5,14.3s-10.5,23-10.5,45.3v714.7c0,28.2,1.3,46.7,4,55.4s8.1,16,16.2,21.7,22.1,8.6,41.8,8.6v9h0Z"/>
        <path class="cls-8" d="m6843.8,182.3l40,109.8-7,1.2c0-.4-10.5-12-31.5-34.8-21-22.8-45-40.3-72-52.7-27-12.4-57.6-18.5-91.6-18.5-57.1,0-102.3,17.1-135.8,51.4s-50.2,75.5-50.2,123.8,7.7,60.1,23.1,84c15.4,24,48.2,46.2,98.2,66.8,86,30.1,144.8,52.8,176.3,68.1s62.1,41.2,91.4,77.8c29.3,36.6,44,83.5,44,140.7s-2.7,46.6-8,68.3-13.8,42.5-25.6,62.6c-11.8,20.1-25.9,38.4-42.3,54.9-16.5,16.5-33.2,29-50.3,37.6-17.1,8.6-44,15-80.7,19.4s-61,6.6-72.8,6.6h-223.4v-255h9c.8,84.2,19.7,143,56.7,176.2s94.7,49.8,173,49.8,125.1-17.6,161.9-52.9c36.9-35.3,55.3-77.6,55.3-127.2s-6.4-55.8-19.2-76.9-30.7-39.8-53.7-55.9-66.7-35.6-131.1-58.6c-64-23.4-108.9-44-134.9-61.7s-47.6-44.3-65-79.9-26.1-71.8-26.1-108.8c0-67.9,22.2-125,66.8-171.1s102.9-69.1,175.3-69.1,58.3,3.3,90.9,9.9c32.6,6.6,50.8,10.9,54.5,12.9,1.5.8,3.1,1.2,4.6,1.2Z"/>
        <path class="cls-8" d="m7763.2,171.3h131.9v9c-44.5,2.4-66.7,26.8-66.7,73.3s1.1,23.6,3.4,41.1l87.3,665.2c5.3,33.1,11.3,54.3,17.9,63.6s20.3,14.9,41.2,16.8v9h-188v-9c24.4.8,36.6-11.8,36.6-37.8s-1.1-17.5-3.4-34.8l-84.6-644.9-299.5,726.6h-5.7l-300.4-725.4-84.9,648.5c-1.5,9.8-2.3,21.1-2.3,33.7,0,22.8,12.7,34.2,38.2,34.2v9h-128v-9c19.3,0,31.8-2.5,37.3-7.4,5.5-4.9,9.8-12.9,12.8-23.8s5.3-23.2,6.8-36.7l94.9-709.4c-15.4-39.3-30.8-62.9-46.3-70.8s-30.3-11.9-44.6-11.9v-9h158.1l293,717.9,294.9-717.9Z"/>
        <path class="cls-8" d="m8468.9,645.3h-245.7l-126.1,331.2c-8.7,23.9-13.1,38.6-13.1,44.1,0,13.1,9.2,19.7,27.8,19.7v9h-124v-9c16.6,0,30.6-4.3,41.9-12.8s23.8-30.7,37.3-66.5l303.1-802.7h14.6l298.3,775.2c0,4,7.6,22.8,22.9,56.4s38.6,50.4,69.9,50.4v9h-195v-9c17.8,0,26.7-7.3,26.7-22.1s-4.4-25.8-13-47.7c-1.5-1.6-2.8-4.2-4-7.7-.8-4-1.3-6-1.7-6l-119.9-311.5Zm-237.7-24h227.3l-114.2-299.6-113.1,299.6Z"/>
      </g>
    </g>
    <g>
      <g>
        <path class="cls-4" d="m1963,733.3v-356.5h312.9V47.9h361v12.2c0,99.8-.1,199.5.2,299.3,0,8.9-2.8,14.4-9.3,19.6-145.5,116.7-290.8,233.6-436.3,350.4-3.4,2.7-8.1,5.2-12.2,5.2-71.1.2-142.1,0-213.2,0-.8,0-1.5-.6-3.2-1.3Z"/>
        <path class="cls-4" d="m2947.6,734.5h-290.7v355.2h-372.4v-354.8h-60.2c-.2-1-.4-1.9-.6-2.9,28.1-22.6,56.1-45.2,84.2-67.8,106.5-85.7,213.1-171.2,319.4-257.2,7.8-6.3,12.6-6.1,20.2.2,97.1,78.4,194.5,156.4,291.5,234.9,4.4,3.6,7.9,11.2,8.1,17.1.9,24.5.4,49,.4,75.2Zm-333.8-63.4c39.7,30.7,81.2,16.7,101.8-8,23-27.6,24.1-69,1.8-97.9-25.6-33.2-68.5-38-104.1-10.7-40.4-31.3-85.3-17.3-105.7,7.1-24.5,29.4-25.2,70.3-2.3,100,20.7,26.9,67.6,40.7,108.5,9.5Z"/>
        <path class="cls-4" d="m2949,621.6c-102.7-82.6-202.1-162.5-303.4-244h303.4v244Z"/>
        <path class="cls-4" d="m2613.8,671.1c-40.9,31.1-87.8,17.3-108.5-9.5-22.9-29.7-22.2-70.6,2.3-100,20.4-24.5,65.2-38.4,105.7-7.1,35.6-27.3,78.4-22.5,104.1,10.7,22.3,28.9,21.2,70.4-1.8,97.9-20.6,24.7-62,38.7-101.8,8Zm4.9-103.3c18.8,30.6,17.7,60.8.3,90.3,24.9,25.1,61.7,24.7,85.3,0,23.6-24.8,23.8-64.9.4-90.2-23.3-25.2-60.7-25.5-86,0Zm-15.6-.2c-21.9-23.9-57.8-24-80.4-.2-24.1,25.4-23.5,67.4,1.2,91.9,23.6,23.3,58.8,22.6,78.8-1.6-17.7-35.2-17.7-55.3.3-90.1Zm7.9,80.1c14.7-23.7,14.2-51.9-.7-69.1-13.8,22.7-13.7,47,.7,69.1Z"/>
        <path class="cls-4" d="m2618.7,567.8c25.3-25.5,62.7-25.1,86,0,23.4,25.3,23.2,65.4-.4,90.2-23.6,24.7-60.3,25.2-85.3,0,17.3-29.5,18.4-59.7-.3-90.3Z"/>
        <path class="cls-4" d="m2603.1,567.6c-18,34.7-18.1,54.9-.3,90.1-20.1,24.2-55.2,25-78.8,1.6-24.8-24.5-25.3-66.5-1.2-91.9,22.6-23.8,58.4-23.7,80.4.2Z"/>
        <path class="cls-4" d="m2611.1,647.8c-14.4-22.1-14.5-46.4-.7-69.1,14.9,17.2,15.4,45.4.7,69.1Z"/>
      </g>
      <text class="cls-1" transform="translate(0 1049.3) scale(1.1 1)"><tspan x="0" y="0">an</tspan></text>
      <text class="cls-1" transform="translate(3045.9 1049.3) scale(1 1)"><tspan class="cls-9" x="0" y="0">R</tspan><tspan class="cls-5" x="798.2" y="0">OPUSMA</tspan></text>
    </g>
  </g>
  <g class="cls-2">
    <text class="cls-3" transform="translate(2896.6 1722.6) scale(1.1 1)"><tspan x="0" y="0">AntrianOnline</tspan></text>
    <text class="cls-3" transform="translate(2045.9 2203) scale(1.1 1)"><tspan x="0" y="0">PuskesmasMapurujaya</tspan></text>
  </g>
</svg>