<?xml version="1.0" encoding="UTF-8"?>
<svg id="Layer_1" data-name="Layer 1" xmlns="http://www.w3.org/2000/svg" viewBox="0 0 8778.37 2978.47">
  <defs>
    <style>
      .cls-1 {
        font-family: FelixTitlingMT, 'Felix Titling';
        font-size: 1220.85px;
      }

      .cls-1, .cls-2, .cls-3 {
        isolation: isolate;
      }

      .cls-1, .cls-4 {
        fill: #006838;
      }

      .cls-5 {
        letter-spacing: 0em;
      }

      .cls-6 {
        fill: #00a651;
      }

      .cls-6, .cls-7, .cls-4 {
        stroke-width: 0px;
      }

      .cls-7 {
        fill: #fff;
      }

      .cls-8 {
        fill: none;
        stroke: #39b54a;
        stroke-width: 5px;
      }

      .cls-3 {
        font-family: Georgia, Georgia;
        font-size: 400.35px;
      }

      .cls-9 {
        letter-spacing: -.14em;
      }
    </style>
  </defs>
  <g>
    <g>
      <g>
        <path class="cls-4" d="m1963,733.34v-356.5h312.92V47.92h361.04v12.17c0,99.77-.12,199.54.21,299.31.03,8.93-2.76,14.39-9.29,19.63-145.48,116.72-290.81,233.63-436.28,350.35-3.41,2.74-8.11,5.23-12.21,5.25-71.07.25-142.15.09-213.22-.02-.76-.02-1.5-.59-3.17-1.27Z"/>
        <path class="cls-6" d="m2947.62,734.48h-290.67v355.21h-372.4v-354.8h-60.2c-.2-.95-.39-1.9-.59-2.86,28.07-22.59,56.13-45.19,84.21-67.77,106.53-85.67,213.13-171.23,319.44-257.19,7.82-6.33,12.55-6.07,20.24.15,97.05,78.44,194.46,156.4,291.46,234.91,4.4,3.56,7.91,11.22,8.13,17.12.9,24.48.38,49.02.38,75.23Zm-333.85-63.38c39.73,30.72,81.15,16.74,101.77-8,22.96-27.56,24.07-69.02,1.77-97.92-25.64-33.2-68.5-38.03-104.06-10.73-40.44-31.28-85.28-17.33-105.69,7.12-24.53,29.4-25.17,70.28-2.28,99.99,20.67,26.86,67.6,40.69,108.49,9.54Z"/>
        <path class="cls-4" d="m2948.97,621.58c-102.72-82.58-202.11-162.48-303.45-243.96h303.45v243.96Z"/>
        <path class="cls-7" d="m2613.77,671.1c-40.88,31.14-87.81,17.31-108.5-9.53-22.89-29.71-22.25-70.59,2.28-99.99,20.41-24.45,65.24-38.4,105.69-7.12,35.56-27.3,78.43-22.48,104.06,10.73,22.31,28.89,21.19,70.36-1.77,97.92-20.61,24.73-62.04,38.71-101.76,7.99Zm4.91-103.27c18.78,30.61,17.66,60.84.35,90.3,24.95,25.07,61.71,24.65,85.26-.08,23.63-24.81,23.82-64.89.42-90.19-23.3-25.18-60.71-25.49-86.03-.03Zm-15.56-.19c-21.94-23.93-57.77-24.04-80.36-.24-24.09,25.38-23.54,67.41,1.22,91.91,23.59,23.34,58.76,22.63,78.82-1.61-17.75-35.19-17.67-55.33.32-90.06Zm7.94,80.13c14.71-23.72,14.18-51.92-.68-69.11-13.79,22.75-13.69,47.04.68,69.11Z"/>
        <path class="cls-4" d="m2618.68,567.83c25.32-25.45,62.73-25.14,86.03.04,23.4,25.29,23.21,65.37-.42,90.19-23.55,24.73-60.31,25.15-85.26.08,17.31-29.47,18.43-59.7-.35-90.31Z"/>
        <path class="cls-4" d="m2603.12,567.64c-18,34.73-18.07,54.87-.33,90.07-20.06,24.23-55.23,24.95-78.82,1.61-24.75-24.5-25.31-66.53-1.22-91.91,22.6-23.81,58.43-23.71,80.37.23Z"/>
        <path class="cls-4" d="m2611.06,647.77c-14.37-22.08-14.47-46.37-.68-69.11,14.86,17.19,15.4,45.4.68,69.11Z"/>
      </g>
      <text class="cls-1" transform="translate(0 1049.32) scale(1.05 1)"><tspan x="0" y="0">an</tspan></text>
      <text class="cls-1" transform="translate(3045.91 1049.32) scale(.95 1)"><tspan class="cls-9" x="0" y="0">R</tspan><tspan class="cls-5" x="798.2" y="0">OPUSMA</tspan></text>
    </g>
    <g>
      <g>
        <path class="cls-8" d="m1963,733.34v-356.5h312.92V47.92h361.04v12.17c0,99.77-.12,199.54.21,299.31.03,8.93-2.76,14.39-9.29,19.63-145.48,116.72-290.81,233.63-436.28,350.35-3.41,2.74-8.11,5.23-12.21,5.25-71.07.25-142.15.09-213.22-.02-.76-.02-1.5-.59-3.17-1.27Z"/>
        <path class="cls-8" d="m2947.62,734.48h-290.67v355.21h-372.4v-354.8h-60.2c-.2-.95-.39-1.9-.59-2.86,28.07-22.59,56.13-45.19,84.21-67.77,106.53-85.67,213.13-171.23,319.44-257.19,7.82-6.33,12.55-6.07,20.24.15,97.05,78.44,194.46,156.4,291.46,234.91,4.4,3.56,7.91,11.22,8.13,17.12.9,24.48.38,49.02.38,75.23Zm-333.85-63.38c39.73,30.72,81.15,16.74,101.77-8,22.96-27.56,24.07-69.02,1.77-97.92-25.64-33.2-68.5-38.03-104.06-10.73-40.44-31.28-85.28-17.33-105.69,7.12-24.53,29.4-25.17,70.28-2.28,99.99,20.67,26.86,67.6,40.69,108.49,9.54Z"/>
        <path class="cls-8" d="m2948.97,621.58c-102.72-82.58-202.11-162.48-303.45-243.96h303.45v243.96Z"/>
        <path class="cls-8" d="m2613.77,671.1c-40.88,31.14-87.81,17.31-108.5-9.53-22.89-29.71-22.25-70.59,2.28-99.99,20.41-24.45,65.24-38.4,105.69-7.12,35.56-27.3,78.43-22.48,104.06,10.73,22.31,28.89,21.19,70.36-1.77,97.92-20.61,24.73-62.04,38.71-101.76,7.99Zm4.91-103.27c18.78,30.61,17.66,60.84.35,90.3,24.95,25.07,61.71,24.65,85.26-.08,23.63-24.81,23.82-64.89.42-90.19-23.3-25.18-60.71-25.49-86.03-.03Zm-15.56-.19c-21.94-23.93-57.77-24.04-80.36-.24-24.09,25.38-23.54,67.41,1.22,91.91,23.59,23.34,58.76,22.63,78.82-1.61-17.75-35.19-17.67-55.33.32-90.06Zm7.94,80.13c14.71-23.72,14.18-51.92-.68-69.11-13.79,22.75-13.69,47.04.68,69.11Z"/>
        <path class="cls-8" d="m2618.68,567.83c25.32-25.45,62.73-25.14,86.03.04,23.4,25.29,23.21,65.37-.42,90.19-23.55,24.73-60.31,25.15-85.26.08,17.31-29.47,18.43-59.7-.35-90.31Z"/>
        <path class="cls-8" d="m2603.12,567.64c-18,34.73-18.07,54.87-.33,90.07-20.06,24.23-55.23,24.95-78.82,1.61-24.75-24.5-25.31-66.53-1.22-91.91,22.6-23.81,58.43-23.71,80.37.23Z"/>
        <path class="cls-8" d="m2611.06,647.77c-14.37-22.08-14.47-46.37-.68-69.11,14.86,17.19,15.4,45.4.68,69.11Z"/>
      </g>
      <g>
        <path class="cls-8" d="m537.22,645.31h-271.42l-139.06,331.2c-9.61,23.86-14.41,38.56-14.41,44.12,0,13.12,10.22,19.67,30.67,19.67v9H6v-9c18.34,0,33.77-4.27,46.27-12.81s26.25-30.72,41.27-66.5L427.92,158.3h15.97l329.86,775.19c0,3.98,8.41,22.78,25.25,56.39,16.84,33.62,42.52,50.42,77.02,50.42v9h-215v-9c19.61,0,29.42-7.34,29.42-22.06,0-9.94-4.81-25.83-14.41-47.69-1.67-1.59-3.12-4.17-4.38-7.75-.84-3.97-1.48-5.97-1.89-5.97l-132.54-311.52Zm-262.53-24h251.23l-126.42-299.64-124.81,299.64Z"/>
        <path class="cls-8" d="m1691.79,171.31h177v9c-26.75.8-45.28,6.27-55.56,16.39-10.3,10.14-15.44,31.5-15.44,64.09v799.52l-738-746.11v649.27c0,20.66,1.62,35.95,4.91,45.88,3.27,9.94,7.97,16.69,14.09,20.25,6.12,3.58,21.47,7.16,46,10.72v9h-176v-9c31.83,0,51.62-5.36,59.38-16.08s11.62-36.33,11.62-76.83V353.63c0-52-7.61-94.48-22.8-127.45-15.19-32.95-50.27-48.23-105.2-45.86v-9h173l694,701.58V252.5c0-33.41-6.27-53.78-18.78-61.14-12.53-7.36-28.59-11.05-48.22-11.05v-9Z"/>
      </g>
      <g>
        <path class="cls-8" d="m3092.91,180.31v-9h236.45c59.95,0,103.31,1.39,130.09,4.17s54.22,12.02,82.31,27.7,49.31,36.92,63.64,63.72c14.33,26.81,21.5,59.67,21.5,98.58,0,44.47-12.75,86.86-38.22,127.17-25.48,40.31-61.44,74.36-107.88,102.14l58.91,95.36c12.84,23.84,46.92,76.09,102.25,156.75,55.31,80.66,98.09,129.89,128.33,147.7,30.22,17.81,59.52,26.7,87.86,26.7s60.06-11.33,96.34-34l3.41,11.86c-45.3,38.77-104.19,58.14-176.66,58.14-48.31,0-89.84-15.03-124.56-45.12-34.73-30.08-95.25-112.64-181.53-247.67-.77-.78-1.14-1.58-1.14-2.38l-84.02-135.83-74.45,2.38h-67.64v335.97c0,27.02,3.36,46.38,10.11,58.09s23.05,17.56,48.89,17.56v9h-214v-9c26.34-1.19,42.75-7.14,49.25-17.86s9.75-32.56,9.75-65.52V259.5c0-22.62-2.8-41.38-8.36-56.27s-22.45-22.51-50.63-22.92Zm155,15v411h87.53c68.95,0,120.11-17.05,153.45-51.14s50.02-78.91,50.02-134.44-16.39-104.97-49.17-153.16c-32.78-48.17-90.47-72.27-173.06-72.27h-68.77Z"/>
        <path class="cls-8" d="m4472.65,158.31c117.19,0,213.02,37.47,287.48,112.39s111.7,168.42,111.7,280.48c0,144.28-43.09,265.72-129.28,364.28s-200.54,147.85-343.06,147.85c-115.69,0-210.38-39.73-284.09-119.23-73.72-79.48-110.56-174.88-110.56-286.17,0-75.11,17.77-152.22,53.3-231.31s89.03-143.58,160.47-193.45c71.44-49.87,156.12-74.84,254.04-74.84Zm-3.1,858c57.44,0,114.11-16.17,170.03-48.53,55.92-32.34,99.94-76.91,132.06-133.67s48.19-115.12,48.19-175.06c0-84.94-21.64-162.16-64.91-231.62s-99.37-123.85-168.32-163.16c-68.97-39.3-132.73-58.95-191.3-58.95-82.75,0-157.86,32.75-225.3,98.25-67.45,65.5-101.17,146.88-101.17,244.12,0,124.25,41.19,233.42,123.56,327.5,82.38,94.09,174.76,141.12,277.16,141.12Z"/>
        <path class="cls-8" d="m4957.15,180.31v-9h238.16c84.66,0,146.17,9.95,184.55,29.86s66.34,44.67,83.92,74.33,26.38,68.75,26.38,117.31c0,74.44-24.42,130.36-73.25,167.77-48.84,37.41-115.09,55.33-198.75,53.73v-9c53.03,0,96.12-17.08,129.28-51.23,33.14-34.16,49.72-79.05,49.72-134.67,0-43.3-8.05-81.73-24.12-115.3-16.09-33.56-38.7-59.09-67.84-76.58-29.16-17.47-73.62-26.22-133.42-26.22h-59.63v750.88c0,42.48,4.45,67.8,13.36,75.92,8.91,8.14,25.78,12.2,50.64,12.2v9h-219v-9c39.33,0,59-18.86,59-56.58V257.14c0-30.97-3.78-51.52-11.34-61.64-7.56-10.12-23.45-15.19-47.66-15.19Z"/>
        <path class="cls-8" d="m6350.65,1049.31h-158v-135c-80.53,94-176.55,141-288.08,141-82.8,0-148.48-24.44-197.06-73.31s-72.86-116.42-72.86-202.66V253.62c0-31.78-3.58-51.95-10.73-60.5-7.16-8.53-23.92-12.81-50.27-12.81v-9h221v9c-23.41,0-39.94,3.88-49.56,11.61s-14.44,26.08-14.44,55.02v481.22c0,100.72,22.5,172.59,67.53,215.62s96.3,64.53,153.81,64.53c90.44,0,170.66-42,240.66-126V287.67c0-52.09-4.38-83-13.09-92.75-8.72-9.73-22.38-14.61-40.94-14.61h-7.97v-9h220v9c-27.31,1.59-44.47,6.36-51.48,14.3s-10.52,23.03-10.52,45.27v714.67c0,28.2,1.33,46.67,3.98,55.41s8.05,15.98,16.2,21.73,22.09,8.62,41.81,8.62v9h0Z"/>
        <path class="cls-8" d="m6843.81,182.31l40,109.81-7,1.19c0-.39-10.5-11.97-31.47-34.75-20.98-22.77-44.98-40.33-72.02-52.7-27.03-12.36-57.55-18.55-91.55-18.55-57.08,0-102.34,17.14-135.8,51.39s-50.17,75.53-50.17,123.84c0,32.08,7.7,60.09,23.14,84.05,15.44,23.97,48.16,46.23,98.16,66.81,85.97,30.08,144.75,52.77,176.34,68.08s62.05,41.25,91.38,77.81c29.31,36.58,43.98,83.48,43.98,140.73,0,23.86-2.66,46.62-7.97,68.3s-13.83,42.55-25.58,62.61c-11.75,20.08-25.86,38.36-42.33,54.86-16.48,16.5-33.25,29.03-50.3,37.58-17.06,8.55-43.97,15-80.72,19.38s-61,6.56-72.75,6.56h-223.36v-255h9c.75,84.23,19.66,142.95,56.72,176.17s94.73,49.83,173.02,49.83c71.09,0,125.08-17.62,161.95-52.89,36.88-35.25,55.31-77.64,55.31-127.17,0-30.09-6.42-55.75-19.23-76.94s-30.72-39.81-53.72-55.86-66.69-35.59-131.05-58.62c-63.98-23.44-108.94-43.98-134.88-61.67s-47.61-44.31-65.02-79.88-26.11-71.81-26.11-108.77c0-67.94,22.25-124.97,66.75-171.06s102.92-69.14,175.27-69.14c28.03,0,58.33,3.33,90.91,9.95,32.56,6.64,50.75,10.94,54.53,12.88,1.54.78,3.05,1.17,4.57,1.17Z"/>
        <path class="cls-8" d="m7763.24,171.31h131.95v9c-44.5,2.39-66.73,26.83-66.73,73.3,0,9.94,1.12,23.64,3.41,41.11l87.27,665.17c5.3,33.12,11.27,54.31,17.89,63.58s20.34,14.88,41.17,16.84v9h-188v-9c24.41.8,36.61-11.8,36.61-37.78,0-5.91-1.14-17.52-3.41-34.84l-84.59-644.94-299.53,726.56h-5.69l-300.39-725.38-84.95,648.46c-1.52,9.84-2.27,21.08-2.27,33.67,0,22.84,12.73,34.25,38.2,34.25v9h-128v-9c19.34,0,31.77-2.47,37.27-7.42,5.5-4.94,9.77-12.88,12.8-23.81s5.3-23.16,6.83-36.67l94.94-709.38c-15.42-39.28-30.84-62.88-46.27-70.81s-30.28-11.91-44.56-11.91v-9h158.12l293.02,717.92,294.91-717.92Z"/>
        <path class="cls-8" d="m8468.93,645.31h-245.66l-126.11,331.2c-8.7,23.86-13.05,38.56-13.05,44.12,0,13.12,9.25,19.67,27.77,19.67v9h-124v-9c16.59,0,30.55-4.27,41.86-12.81s23.77-30.72,37.34-66.5l303.06-802.69h14.56l298.31,775.23c0,3.98,7.64,22.78,22.92,56.38s38.59,50.39,69.94,50.39v9h-195v-9c17.77,0,26.66-7.34,26.66-22.06,0-9.94-4.36-25.83-13.05-47.69-1.52-1.59-2.84-4.17-3.97-7.75-.77-3.97-1.33-5.97-1.7-5.97l-119.88-311.52Zm-237.66-24h227.33l-114.22-299.64-113.11,299.64Z"/>
      </g>
    </g>
    <g>
      <g>
        <path class="cls-4" d="m1963,733.34v-356.5h312.92V47.92h361.04v12.17c0,99.77-.12,199.54.21,299.31.03,8.93-2.76,14.39-9.29,19.63-145.48,116.72-290.81,233.63-436.28,350.35-3.41,2.74-8.11,5.23-12.21,5.25-71.07.25-142.15.09-213.22-.02-.76-.02-1.5-.59-3.17-1.27Z"/>
        <path class="cls-4" d="m2947.62,734.48h-290.67v355.21h-372.4v-354.8h-60.2c-.2-.95-.39-1.9-.59-2.86,28.07-22.59,56.13-45.19,84.21-67.77,106.53-85.67,213.13-171.23,319.44-257.19,7.82-6.33,12.55-6.07,20.24.15,97.05,78.44,194.46,156.4,291.46,234.91,4.4,3.56,7.91,11.22,8.13,17.12.9,24.48.38,49.02.38,75.23Zm-333.85-63.38c39.73,30.72,81.15,16.74,101.77-8,22.96-27.56,24.07-69.02,1.77-97.92-25.64-33.2-68.5-38.03-104.06-10.73-40.44-31.28-85.28-17.33-105.69,7.12-24.53,29.4-25.17,70.28-2.28,99.99,20.67,26.86,67.6,40.69,108.49,9.54Z"/>
        <path class="cls-4" d="m2948.97,621.58c-102.72-82.58-202.11-162.48-303.45-243.96h303.45v243.96Z"/>
        <path class="cls-4" d="m2613.77,671.1c-40.88,31.14-87.81,17.31-108.5-9.53-22.89-29.71-22.25-70.59,2.28-99.99,20.41-24.45,65.24-38.4,105.69-7.12,35.56-27.3,78.43-22.48,104.06,10.73,22.31,28.89,21.19,70.36-1.77,97.92-20.61,24.73-62.04,38.71-101.76,7.99Zm4.91-103.27c18.78,30.61,17.66,60.84.35,90.3,24.95,25.07,61.71,24.65,85.26-.08,23.63-24.81,23.82-64.89.42-90.19-23.3-25.18-60.71-25.49-86.03-.03Zm-15.56-.19c-21.94-23.93-57.77-24.04-80.36-.24-24.09,25.38-23.54,67.41,1.22,91.91,23.59,23.34,58.76,22.63,78.82-1.61-17.75-35.19-17.67-55.33.32-90.06Zm7.94,80.13c14.71-23.72,14.18-51.92-.68-69.11-13.79,22.75-13.69,47.04.68,69.11Z"/>
        <path class="cls-4" d="m2618.68,567.83c25.32-25.45,62.73-25.14,86.03.04,23.4,25.29,23.21,65.37-.42,90.19-23.55,24.73-60.31,25.15-85.26.08,17.31-29.47,18.43-59.7-.35-90.31Z"/>
        <path class="cls-4" d="m2603.12,567.64c-18,34.73-18.07,54.87-.33,90.07-20.06,24.23-55.23,24.95-78.82,1.61-24.75-24.5-25.31-66.53-1.22-91.91,22.6-23.81,58.43-23.71,80.37.23Z"/>
        <path class="cls-4" d="m2611.06,647.77c-14.37-22.08-14.47-46.37-.68-69.11,14.86,17.19,15.4,45.4.68,69.11Z"/>
      </g>
      <text class="cls-1" transform="translate(0 1049.32) scale(1.05 1)"><tspan x="0" y="0">an</tspan></text>
      <text class="cls-1" transform="translate(3045.91 1049.32) scale(.95 1)"><tspan class="cls-9" x="0" y="0">R</tspan><tspan class="cls-5" x="798.2" y="0">OPUSMA</tspan></text>
    </g>
  </g>
  <g class="cls-2">
    <text class="cls-3" transform="translate(2896.63 1722.61) scale(1.1 1)"><tspan x="0" y="0">AntrianOnline</tspan></text>
    <text class="cls-3" transform="translate(2045.89 2203.03) scale(1.1 1)"><tspan x="0" y="0">PuskesmasMapurujaya</tspan></text>
  </g>
</svg>