<?xml version="1.0" encoding="UTF-8"?>
<svg id="Layer_1" data-name="Layer 1" xmlns="http://www.w3.org/2000/svg" viewBox="0 0 65.61 18.65">
  <defs>
    <style>
      .cls-1 {
        letter-spacing: -.14em;
      }

      .cls-2 {
        letter-spacing: -.07em;
      }

      .cls-3 {
        fill: #0d3a58;
      }

      .cls-3, .cls-4 {
        stroke-width: 0px;
      }

      .cls-5 {
        fill: #3d4442;
        font-size: 2.06px;
      }

      .cls-5, .cls-6 {
        font-family: FelixTitlingMT, 'Felix Titling';
      }

      .cls-6 {
        fill: #ffde17;
        font-size: 3.69px;
      }

      .cls-7 {
        letter-spacing: -.12em;
      }

      .cls-8 {
        letter-spacing: -.02em;
      }

      .cls-4 {
        fill: #356d35;
      }

      .cls-9 {
        letter-spacing: 0em;
      }
    </style>
  </defs>
  <g>
    <path class="cls-4" d="m16.22,17.4c-.56.07-1.2,0-1.92-.2-1.45-.41-2.59-1.31-3.41-2.7-.19-.32-.36-.62-.51-.92-.73-1.43-.99-2.59-.77-3.46.31-1.28,1.64-2.14,3.97-2.57,1.39-.26,2.77-.1,4.15.49,1.2.51,2.02,1.19,2.45,2.04.07.15.14.29.19.45.3.88-.05,1.69-1.04,2.45-.66.51-1.4.84-2.21.99-.36.07-.74.1-1.13.09-1.07,0-1.87-.27-2.4-.79-.17-.16-.29-.32-.37-.49-.05-.1-.08-.19-.1-.29.39.17.86.3,1.41.38.59.09,1.14.08,1.64,0,.42-.08.8-.22,1.16-.42.6-.34.92-.75.97-1.21.03-.26-.02-.52-.15-.78-.08-.15-.18-.31-.32-.46-.33-.39-.77-.72-1.33-.99-.56-.27-1.11-.42-1.63-.43-.38-.01-.74.01-1.08.08-.17.03-.34.07-.5.12-.54.17-.95.44-1.24.79-.64.78-.6,1.87.11,3.27.09.18.19.36.3.54.82,1.38,2.08,2.72,3.77,4.02Z"/>
    <path class="cls-3" d="m4.24,8.68c.56-.07,1.2,0,1.92.2,1.45.41,2.59,1.31,3.42,2.7.19.32.36.62.51.92.73,1.43.99,2.59.77,3.46-.31,1.28-1.63,2.14-3.97,2.57-1.39.26-2.77.1-4.15-.48-1.2-.51-2.02-1.19-2.45-2.04-.07-.15-.14-.29-.19-.45-.3-.88.04-1.69,1.04-2.45.66-.51,1.39-.84,2.21-.99.36-.07.74-.1,1.13-.09,1.07,0,1.87.27,2.41.79.17.16.29.32.38.49.05.1.08.19.1.28-.39-.17-.86-.3-1.41-.38-.6-.09-1.14-.08-1.64,0-.42.08-.8.22-1.16.43-.6.34-.92.75-.97,1.21-.03.26.02.52.15.78.08.15.18.31.32.46.33.39.78.72,1.33.99.57.27,1.11.41,1.63.43.38.01.74-.01,1.08-.08.17-.03.34-.07.5-.12.54-.17.95-.44,1.24-.79.63-.78.59-1.87-.12-3.27-.09-.18-.19-.36-.3-.54-.83-1.38-2.08-2.72-3.77-4.02Z"/>
    <ellipse class="cls-4" cx="5.68" cy="15.25" rx="1.78" ry="1.08"/>
    <ellipse class="cls-3" cx="15" cy="10.82" rx="1.57" ry=".95"/>
  </g>
  <text class="cls-6" transform="translate(21.91 11.78) scale(1.71 1)"><tspan x="0" y="0">ant</tspan><tspan class="cls-1" x="7.73" y="0">r</tspan><tspan x="10.14" y="0">opusma</tspan></text>
  <text class="cls-5" transform="translate(28.48 14.95) scale(1.69 1)"><tspan x="0" y="0">antrian online </tspan><tspan x="-3.38" y="2.48">puskesmas mapu</tspan><tspan class="cls-7" x="14.79" y="2.48">r</tspan><tspan class="cls-9" x="16.17" y="2.48">u</tspan><tspan class="cls-8" x="17.71" y="2.48">j</tspan><tspan class="cls-2" x="18.2" y="2.48">ay</tspan><tspan x="20.49" y="2.48">a</tspan></text>
</svg>